<?xml version="1.0" encoding="UTF-8"?>
<svg width="45px" height="45px" viewBox="0 0 45 45" version="1.1" xmlns="http://www.w3.org/2000/svg" xmlns:xlink="http://www.w3.org/1999/xlink">
    <title>icon-关闭</title>
    <g id="小程序-邀请卡片-【0520】" stroke="none" stroke-width="1" fill="none" fill-rule="evenodd" fill-opacity="0.5">
        <path d="M22.0650391,0.0650390625 C34.2153248,0.0650390625 44.0650391,9.91475335 44.0650391,22.0650391 C44.0650391,34.2153248 34.2153248,44.0650391 22.0650391,44.0650391 C9.91475335,44.0650391 0.0650390625,34.2153248 0.0650390625,22.0650391 C0.0650390625,9.91475335 9.91475335,0.0650390625 22.0650391,0.0650390625 Z M22.0650391,3.20789621 C19.5179498,3.20789621 17.0487444,3.70603906 14.7259275,4.68847656 C12.480798,5.63811049 10.4638203,6.99818192 8.73102567,8.73102567 C6.99818192,10.4638203 5.63806138,12.480798 4.68847656,14.7259275 C3.70603906,17.0487444 3.20789621,19.5179498 3.20789621,22.0650391 C3.20789621,24.6121283 3.70603906,27.0813828 4.68847656,29.4041507 C5.63811049,31.6492801 6.99818192,33.6662578 8.73102567,35.3990525 C10.4638203,37.1318962 12.480798,38.4920167 14.7259275,39.4416016 C17.0487444,40.4240391 19.5179498,40.9221819 22.0650391,40.9221819 C24.6121283,40.9221819 27.0813828,40.4240391 29.4041507,39.4416016 C31.6492801,38.4919676 33.6662578,37.1318962 35.3990525,35.3990525 C37.1318962,33.6662578 38.4920167,31.6492801 39.4416016,29.4041507 C40.4240391,27.0813337 40.9221819,24.6121283 40.9221819,22.0650391 C40.9221819,19.5179498 40.4240391,17.0486953 39.4416016,14.7259275 C38.4919676,12.480798 37.1318962,10.4638203 35.3990525,8.73102567 C33.6662578,6.99818192 31.6492801,5.63806138 29.4041507,4.68847656 C27.0813337,3.70603906 24.6121283,3.20789621 22.0650391,3.20789621 Z M29.3348605,12.6383828 C29.9485033,12.0246908 30.9435123,12.0246908 31.5571551,12.6383828 C32.1708471,13.2520748 32.1708471,14.2470346 31.5571551,14.8607266 L31.5571551,14.8607266 L24.3200882,22.0977935 L31.5571551,29.3348605 C32.1708471,29.9485033 32.1708471,30.9435123 31.5571551,31.5571551 C31.2503337,31.8640257 30.8481462,32.0174364 30.4460078,32.0174364 C30.0438694,32.0174364 29.6416819,31.8640257 29.3348605,31.5571551 L29.3348605,31.5571551 L22.0977935,24.3200882 L14.8607266,31.5571551 C14.5539051,31.8640257 14.1517176,32.0174364 13.7495792,32.0174364 C13.3474408,32.0174364 12.9452533,31.8640257 12.6384319,31.5571551 C12.02474,30.9435123 12.02474,29.9485033 12.6384319,29.3348605 L12.6384319,29.3348605 L19.8754989,22.0977935 L12.6383828,14.8607757 C12.0246908,14.2470837 12.0246908,13.2521239 12.6383828,12.6384319 C13.2520748,12.02474 14.2470346,12.02474 14.8607266,12.6384319 L14.8607266,12.6384319 L22.0977935,19.8754989 Z" id="icon-关闭" fill="#393946" fill-rule="nonzero"></path>
    </g>
</svg>